<?xml version="1.0" encoding="utf-8"?>
<!-- Generator: Adobe Illustrator 18.0.0, SVG Export Plug-In . SVG Version: 6.00 Build 0)  -->
<!DOCTYPE svg PUBLIC "-//W3C//DTD SVG 1.1//EN" "http://www.w3.org/Graphics/SVG/1.1/DTD/svg11.dtd">
<svg version="1.1" id="图层_1" xmlns="http://www.w3.org/2000/svg" xmlns:xlink="http://www.w3.org/1999/xlink" x="0px" y="0px"
	 viewBox="0 0 32 32" enable-background="new 0 0 32 32" xml:space="preserve">
<g>
	<g>
		<path fill="#FFFFFF" d="M27.4,12.2c2.1,0,3.8,1.7,3.8,3.8s-1.7,3.8-3.8,3.8S21.5,16,21.5,16S25.3,12.2,27.4,12.2z"/>
		<path fill="#FFFFFF" d="M9.6,22.9c0,0,1.4,5.2,0.4,7s-3.4,2.4-5.2,1.4s-2.4-3.4-1.4-5.2C4.4,24.3,9.6,22.9,9.6,22.9z"/>
		<path fill="#FFFFFF" d="M4.8,0.7C6.6-0.3,8.9,0.3,10,2.1s-0.4,7-0.4,7S4.4,7.7,3.4,5.9C2.3,4.1,2.9,1.8,4.8,0.7z"/>
	</g>
	<g>
		<path fill="#FFFFFF" d="M5.8,13.7c-1.2,0-2.2,1-2.2,2.2c0,1.2,1,2.2,2.2,2.2s3.4-2.2,3.4-2.2S7,13.7,5.8,13.7z"/>
		<path fill="#FFFFFF" d="M16.1,19.9c0,0-0.8,3-0.2,4c0.6,1.1,2,1.4,3,0.8c1.1-0.6,1.4-2,0.8-3C19.1,20.7,16.1,19.9,16.1,19.9z"/>
		<path fill="#FFFFFF" d="M18.9,7c-1.1-0.6-2.4-0.2-3,0.8c-0.6,1.1,0.2,4,0.2,4s3-0.8,3.6-1.8C20.3,9,20,7.6,18.9,7z"/>
	</g>
</g>
</svg>
