<?xml version="1.0" standalone="no"?>
<!DOCTYPE svg PUBLIC "-//W3C//DTD SVG 1.1//EN" "http://www.w3.org/Graphics/SVG/1.1/DTD/svg11.dtd" >
<svg xmlns="http://www.w3.org/2000/svg">
<metadata>
Created by FontForge 20120731 at Tue May 17 19:43:13 2016
 By admin
</metadata>
<defs>
<font id="iconfont" horiz-adv-x="1024" >
  <font-face 
    font-family="iconfont"
    font-weight="500"
    font-stretch="normal"
    units-per-em="1024"
    panose-1="2 0 6 3 0 0 0 0 0 0"
    ascent="896"
    descent="-128"
    x-height="792"
    bbox="0 -128 1026 896"
    underline-thickness="50"
    underline-position="-100"
    unicode-range="U+0078-E62A"
  />
<missing-glyph horiz-adv-x="374" 
d="M34 0v682h272v-682h-272zM68 34h204v614h-204v-614z" />
    <glyph glyph-name=".notdef" horiz-adv-x="374" 
d="M34 0v682h272v-682h-272zM68 34h204v614h-204v-614z" />
    <glyph glyph-name=".null" horiz-adv-x="0" 
 />
    <glyph glyph-name="nonmarkingreturn" horiz-adv-x="341" 
 />
    <glyph glyph-name="x" unicode="x" horiz-adv-x="1001" 
d="M281 543q-27 -1 -53 -1h-83q-18 0 -36.5 -6t-32.5 -18.5t-23 -32t-9 -45.5v-76h912v41q0 16 -0.5 30t-0.5 18q0 13 -5 29t-17 29.5t-31.5 22.5t-49.5 9h-133v-97h-438v97zM955 310v-52q0 -23 0.5 -52t0.5 -58t-10.5 -47.5t-26 -30t-33 -16t-31.5 -4.5q-14 -1 -29.5 -0.5
t-29.5 0.5h-32l-45 128h-439l-44 -128h-29h-34q-20 0 -45 1q-25 0 -41 9.5t-25.5 23t-13.5 29.5t-4 30v167h911zM163 247q-12 0 -21 -8.5t-9 -21.5t9 -21.5t21 -8.5q13 0 22 8.5t9 21.5t-9 21.5t-22 8.5zM316 123q-8 -26 -14 -48q-5 -19 -10.5 -37t-7.5 -25t-3 -15t1 -14.5
t9.5 -10.5t21.5 -4h37h67h81h80h64h36q23 0 34 12t2 38q-5 13 -9.5 30.5t-9.5 34.5q-5 19 -11 39h-368zM336 498v228q0 11 2.5 23t10 21.5t20.5 15.5t34 6h188q31 0 51.5 -14.5t20.5 -52.5v-227h-327z" />
    <glyph glyph-name="uniE600" unicode="&#xe600;" 
d="M959 762l-69 69l-378 -378l-378 378l-69 -69l378 -378l-378 -378l69 -69l378 378l378 -378l69 69l-378 378z" />
    <glyph glyph-name="uniE601" unicode="&#xe601;" 
d="M427 164q-22 0 -43 6q-38 11 -67 41q-27 29 -42 69q-31 84 -3 180t99 150q35 26 73 35q41 10 79.5 -1.5t67.5 -41.5q27 -28 42 -69q31 -84 3 -180t-100 -150q-34 -26 -72 -35q-19 -4 -37 -4zM481 598q-40 0 -79 -29q-57 -44 -80.5 -123.5t1.5 -147.5q23 -64 76 -79.5
t107 25.5q57 44 80.5 123.5t-1.5 147.5q-23 64 -76 79q-14 4 -28 4zM489 -25q-76 0 -144 22q-86 28 -149 86q-67 61 -104 150q-32 79 -27 166q4 82 40 160q36 76 97 135q63 61 142 93q69 29 144 28q73 -1 140 -29t118 -79q53 -53 82 -123q52 -127 -1 -253
q-26 -61 -72.5 -106.5t-107.5 -70.5q-45 -20 -78 7q-31 27 -22 69l1 1v1l117 347q3 10 12.5 15t20 1.5t15 -13t1.5 -19.5l-117 -346q-2 -10 5 -16q9 -7 25 0h1q51 21 90.5 60t60.5 90q45 107 2 213q-25 60 -69.5 105t-103.5 70q-122 51 -245 1q-69 -28 -124 -81t-87.5 -122
t-35.5 -141q-4 -75 24 -143q32 -79 90 -132q56 -51 130 -75q153 -49 321 20q58 24 117 73q57 49 81 93q5 9 15 12t19.5 -2t12.5 -15t-2 -19q-28 -53 -93 -108t-131 -82q-105 -43 -211 -43z" />
    <glyph glyph-name="uniE602" unicode="&#xe602;" 
d="M517 115q-9 0 -17 5q-9 8 -10.5 19.5t5.5 20.5l289 382q11 13 8.5 29.5t-15.5 26.5l-100 76q-13 10 -29.5 7.5t-26.5 -15.5l-289 -380q-7 -9 -18.5 -10.5t-21 5.5t-11 18.5t5.5 21.5l288 380q25 32 65 37.5t72 -19.5l99 -75q32 -25 37.5 -65t-18.5 -72l-290 -381
q-8 -11 -23 -11zM761 462q-7 0 -12 5l-200 152q-7 5 -8 13.5t4 15t13.5 8t15.5 -4.5l200 -152q7 -5 8 -13.5t-4 -14.5q-6 -9 -17 -9zM262 5q-10 0 -17 6q-13 10 -11 27l42 263q3 16 18 22t28 -4l209 -159q13 -9 11 -25.5t-18 -22.5l-251 -105q-5 -2 -11 -2zM325 245
l-27 -166l159 66z" />
    <glyph glyph-name="uniE603" unicode="&#xe603;" 
d="M510.5 833q-89.5 0 -171 -35t-140.5 -94t-94 -140.5t-35 -171t35 -171t94 -140.5t140.5 -94t171 -35t171 35t140.5 94t94 140.5t35 171t-35 171t-94 140.5t-140.5 94t-171 35zM510.5 0q-106.5 0 -196.5 52.5t-142.5 143t-52.5 196.5t52.5 196.5t142.5 143t196.5 52.5
t196.5 -52.5t142.5 -143t52.5 -196.5t-52.5 -196.5t-142.5 -143t-196.5 -52.5zM710 377q-10 0 -17 -7t-7 -18v-16q0 -73 -51.5 -124t-124 -51t-124 51t-51.5 124v16q0 11 -7 18t-17 7t-17.5 -7t-7.5 -18v-16q0 -93 66 -158.5t158.5 -65.5t158.5 65.5t66 158.5v16
q0 11 -7.5 18t-17.5 7zM311 492zM269 492q0 17 12 29.5t29.5 12.5t30 -12.5t12.5 -29.5t-12.5 -29.5t-30 -12.5t-29.5 12.5t-12 29.5zM710 492zM668 492q0 17 12.5 29.5t30 12.5t29.5 -12.5t12 -29.5t-12 -29.5t-29.5 -12.5t-30 12.5t-12.5 29.5z" />
    <glyph glyph-name="uniE604" unicode="&#xe604;" 
d="M886 64v1l-207 208q63 77 66 173q3 58 -17.5 113.5t-59.5 97.5q-71 76 -173 90q-19 2 -39 2q-99 0 -176 -60q-43 -33 -71.5 -80.5t-36.5 -100.5q-19 -104 34 -195q35 -61 94 -99q54 -35 118 -43q19 -3 38 -3q92 0 166 52l207 -208l4 -3q11 -9 25 -9q15 0 26.5 11.5
t11.5 27.5q0 14 -10 25zM676 349q-25 -53 -73 -88.5t-105 -44.5q-54 -10 -108 5q-51 14 -92.5 49.5t-63.5 83.5q-26 54 -23 116.5t34 113.5q27 47 72.5 78.5t98.5 39.5l6 1q3 0 7 1q14 1 27 1q55 0 103 -22q44 -20 77 -55.5t50 -80.5q18 -48 15.5 -100.5t-25.5 -97.5z" />
    <glyph glyph-name="uniE605" unicode="&#xe605;" 
d="M915 116q23 -37 -2 -74q-64 -99 -133 -118q-14 -4 -32 -4q-36 0 -76.5 14t-73.5 36q-23 15 -55 42t-69 61q-87 83 -167 177q-75 89 -121 163q-72 116 -85 211v4q-5 29 -1 52q6 42 36 81q5 6 12 13q8 9 18 18q26 24 53 38q33 18 63 18q22 0 40 -10q13 -7 30 -26
q23 -26 37 -59q2 -5 5 -14q36 -84 39 -130q1 -23 -7 -39q-11 -23 -45 -42q-26 -15 -28 -29q-2 -9 6 -24q23 -41 54 -85q41 -58 93 -116q14 -15 31 -30q21 -19 41 -31q21 -13 33 -14h1q12 0 33 19q4 3 11 10q30 28 49 28q12 0 25 -7h1l158 -105h1q15 -10 25 -28zM875 123
l-158 104q-6 4 -12 4q-1 0 -2 -1q-8 -1 -29 -21q-8 -7 -12 -11q-28 -25 -50 -25h-3q-26 2 -61.5 29t-60.5 55q-53 59 -95 118q-32 46 -56 88q-16 30 -5 53q9 18 37 34q27 15 35 31q5 10 4 26q-2 42 -36 122q-4 10 -6 14q-11 27 -30 50q-15 17 -25 22q-13 7 -28 7
q-27 0 -61 -20q-20 -12 -39 -30q-16 -14 -25 -26q-26 -34 -32 -70q-3 -20 1 -45q0 -2 1 -4q8 -63 46 -139q32 -64 84 -134q29 -39 70 -88q76 -90 161 -170q38 -36 71 -64q31 -26 53 -41q30 -19 67 -32t69 -13q14 0 25 3q60 16 119 107q15 23 2 46q-7 13 -19 21z" />
    <glyph glyph-name="uniE606" unicode="&#xe606;" 
d="M522 382h130v-165l320 274l-320 277v-159q-69 -1 -128 -17.5t-99 -41t-72.5 -59t-51.5 -67.5t-32.5 -70.5t-19.5 -63t-9 -50.5h1q6 29 25 52.5t42.5 37.5t55 25t56.5 15.5t51.5 7.5t36 3.5t14.5 0.5zM791 71h-665q-19 0 -32.5 13.5t-13.5 32.5v556q0 20 13.5 33.5
t32.5 13.5h428v-31h-428q-6 0 -10.5 -4.5t-4.5 -11.5v-556q0 -6 4.5 -10.5t10.5 -4.5h665q6 0 10.5 4.5t4.5 10.5v113h31v-113q0 -19 -13.5 -32.5t-32.5 -13.5z" />
    <glyph glyph-name="uniE607" unicode="&#xe607;" 
d="M512 -128q139 0 257 68.5t186.5 186.5t68.5 257t-68.5 257t-186.5 186.5t-257 68.5t-257 -68.5t-186.5 -186.5t-68.5 -257t68.5 -257t186.5 -186.5t257 -68.5zM469 128q0 18 12.5 30.5t30.5 12.5t30.5 -12.5t12.5 -30.5t-12.5 -30.5t-30.5 -12.5t-30.5 12.5t-12.5 30.5z
M469 640q0 18 12.5 30.5t30.5 12.5t30.5 -12.5t12.5 -30.5v-342q0 -17 -12.5 -29.5t-30.5 -12.5t-30.5 12.5t-12.5 29.5v342z" />
    <glyph glyph-name="uniE608" unicode="&#xe608;" 
d="M610.5 20q-5.5 0 -10 -4t-4.5 -10t4 -10.5t10 -4.5q14 0 14 15q0 6 -4 10t-9.5 4zM819 20h-168v-29h197v225h-29v-196zM848 580h-84v70q0 98 -70 167.5t-168 69.5h-28q-98 0 -168 -69.5t-70 -167.5v-70h-84q-46 0 -79 -32.5t-33 -79.5v-475q0 -46 33 -79t79 -33h672
q46 0 79 32.5t33 79.5v475q0 46 -33 79t-79 33zM316 639q0 80 54 136.5t131 56.5h21q77 0 131 -56.5t54 -136.5v-59h-391v59zM903 -7q0 -23 -16.5 -39.5t-38.5 -16.5h-672q-23 0 -39 16.5t-16 39.5v475q0 23 16.5 39t38.5 16h84v-35q-28 -17 -28 -49q0 -23 16.5 -39
t38.5 -16q23 0 39.5 16.5t16.5 38.5q0 32 -29 49v35h391v-35q-28 -17 -28 -49q0 -23 16.5 -39t38.5 -16q24 0 40 16.5t16 38.5q0 32 -29 49v35h84q24 0 40 -16t16 -39z" />
    <glyph glyph-name="uniE609" unicode="&#xe609;" 
d="M938 697q-66 19 -132 19q-50 0 -98.5 -10.5t-82 -25t-60 -29t-39.5 -24.5l-13 -10h-1h-1q-5 4 -13.5 10.5t-38 23.5t-61.5 30t-81 24t-99 11q-66 0 -132 -19q-10 -2 -16 -10.5t-6 -18.5v-518q0 -13 9 -22t21 -9q3 0 5 1q55 8 111 8q166 0 280 -70q10 -6 21 -6h1h1
q11 0 21 6q114 70 280 70q56 0 111 -8q2 -1 5 -1q12 0 21 9t9 22v518q0 10 -6 18.5t-16 10.5zM495 91q-119 68 -285 68q-59 0 -116 -9v518q63 17 124 17q57 0 112 -14q44 -12 86 -32q47 -22 75 -46l4 -4v-498zM930 150q-57 9 -116 9q-166 0 -285 -68v498l4 4q28 24 75 46
q42 20 86 32q55 14 112 14q61 0 124 -17v-518zM221 716h6h-6zM221 716z" />
    <glyph glyph-name="uniE60A" unicode="&#xe60a;" 
d="M760 455v103q0 5 -0.5 14t-5 34t-13 48t-26.5 50.5t-42.5 47.5t-64.5 34t-89.5 14t-89.5 -13.5t-64.5 -34.5t-42.5 -47t-26 -51.5t-13 -47t-6 -34.5v-14v-103h-104v-484h691v484h-104zM553 188v-113h-69v113q-34 20 -34 59q0 29 20 49.5t48.5 20.5t49 -20.5t20.5 -49.5
q0 -39 -35 -59zM691 455h-345v103q0 14 2 29.5t12.5 43t27.5 48t51 36.5t79.5 16t80 -16t51.5 -36.5t27 -48t12 -43t2 -29.5v-103z" />
    <glyph glyph-name="uniE60B" unicode="&#xe60b;" 
d="M979 229l-1 -6l-1 -3l-1 -2v-1l-1 -1l-1 -2l-1 -2l-1 -3l-1 -2l-1 -2l-1 -1l-1 -1l-1 -1l-1 -1l-1 -1l-1 -2l-1 -1l-1 -3l-1 -1l-2 -1v-2h-2l-1 -1l-1 -2l-2 -1l-2 -1l-2 -1l-1 -1v-1l-1 -2l-1 -1l-3 -1l-3 -1l-3 -1h-2l-1 -1l-1 -2l-2 -1l-3 -1l-8 -1l-338 -1l-3 -1
l-1 -1l-1 -1l-1 -1l-1 -1l-1 -1l-1 -1v-1h-2v-1q-1 -5 -6.5 -8t-5.5 -7q-6 -2 -10 -7q-1 0 -4 -2t-3 -7l-5 -1l-4 -2l-1 -5l-9 -4q0 -3 -1 -3.5t-2.5 -1t-2.5 -1.5t-1 -3t-1 -2.5t-5 -0.5v-3h-2v-6l-3 -1h-4l-4 -6q-5 0 -10 -7q-1 -1 -4.5 -4t-4.5 -6q-4 -1 -5.5 -2t-2 -3
t-1.5 -3l-3 -2q-4 -1 -5 -6q-10 0 -18 -16q-4 0 -5.5 -0.5t-2.5 -2.5t-4 -4q-1 0 -4 -5q-1 -1 -3 -2t-2 -2q-2 -1 -6.5 -5t-8.5 -7.5t-6 -3.5v-3q-2 -1 -3.5 -3t-5.5 -3l-13 -15l1 -1q-9 0 -10 -6h-3q-7 0 -7 5v3q0 4 5 5l2 16l9 10q0 7 0.5 10t1.5 3.5t2 1.5t1 4h2v1l1 16
l6 3l2 16l6 5l1 8v6q7 2 7 12h2v8q0 2 4 5.5t4 12.5l7 12v1l1 1h1v5v6h3q0 2 2 4.5t2 4.5v3q0 3 -2.5 3t-7 -0.5t-5.5 -0.5h-318q-12 0 -16 9q-7 0 -10 4t-10 6q0 4 -4 8t-5 7h-5l-3 15l-6 1l-1 10v534q0 10 6 11l4 14l6 4q1 5 4.5 7.5t4.5 5.5h4h2l2 1l1 1l2 1l1 1v1l1 1
l1 1l1 1l3 1l4 1h3l2 1l2 1l1 1l2 1l1 1l6 1h817l5 -1l1 -1l1 -1l3 -1l2 -1l2 -1h3l4 -1l1 -1l2 -1l1 -1l1 -1l1 -1l1 -1l1 -1l2 -1l2 -1l1 -1l1 -1l1 -2h1l1 -1l1 -1l2 -1l1 -1v-1l1 -2l1 -2l1 -1l1 -2l1 -1l2 -1l1 -1l1 -2l1 -3l1 -2l1 -3l1 -1l1 -2v-1l1 -2l1 -2l1 -7
l1 -12v-506zM476 19h1l1 1l2 1l1 1l1 1v1l2 5q2 0 3.5 1t3.5 2q2 8 14 16h4v3h2q0 2 0.5 2.5t4.5 0.5v3h3q1 6 7 6q1 3 2.5 4t2.5 3h3q1 4 2 5t3.5 2t4.5 2l-1 8h8q1 3 5.5 6.5t4.5 8.5q7 0 9.5 4.5t7.5 4.5l1 6q10 2 12 10q3 0 9.5 1t11.5 1h22h46h91h91h45q7 0 19 4
q9 3 21 2l4 7h5h6q2 0 3.5 2t1.5 6q1 0 3 0.5t4 0.5h2l3 7h5q1 4 5.5 7.5t4.5 7.5q5 1 7.5 5.5t5.5 5.5v4q0 3 3.5 9t4.5 10l2 -3l1 2v577q-2 1 -3 0v1q-1 1 -2 5t-5 7l-4 11h-3l-2 9h-6l-1 7q-3 1 -6 5t-8 4l-1 5h-2v4q-5 0 -9.5 3.5t-10.5 3.5h-7q0 3 -0.5 4t-2.5 1.5
t-3 1.5l-23 1q-5 3 -13 3h-790l-30 -4h-6l-12 -7l-11 -2q-1 -5 -10 -8l-3 -6h-5l-3 -8h-2q-1 0 -5 -1q-1 -5 -4 -7t-3 -4q-1 -1 -2.5 -4t-2.5 -6l-1 -2h-3v-9q0 -5 -4 -6l-3 -4l-1 -55l-1 -465l3 -56l3 -2l2 -5l1 1v-6q0 -5 3.5 -8t3.5 -5l1 -3l11 -11l4 -7h8v-3l3 -6
q9 0 10 -7l12 -1l3 -5l25 -3q7 -5 9 -5h252q1 0 6 0.5t7.5 0t2.5 -3.5v-8q0 -3 -1 -6.5t-1 -4.5l-6 -2v-18h-4l-4 -2v-8q0 -8 -4 -12t-4 -6v-11q-10 -2 -10 -14v-4q-7 -2 -7 -20q-8 -2 -8 -19v-30q0 -1 1 -5l1 1l3 -4l7 -3q1 -6 3.5 -7t11.5 -1l5 -2v-3h10q5 0 7 4l15 2l5 7
q5 0 11 5.5t7 9.5l8 4v4q4 0 7 5t8 6q3 1 3.5 3t3.5 3q4 2 4 2.5t2 5.5q7 0 8 8h3q1 0 4 1l1 6q5 1 7 2.5t2 2.5t-0.5 2t1 2t5.5 1l-3 -4v0zM247 485zM174 485q0 30 21.5 51.5t51.5 21.5t51 -21.5t21 -51.5t-21 -51.5t-51 -21.5t-51.5 21.5t-21.5 51.5zM737 485zM664 485
q0 30 21.5 51.5t51.5 21.5t51.5 -21.5t21.5 -51.5t-21.5 -51.5t-51.5 -21.5t-51.5 21.5t-21.5 51.5zM488 485zM415 485q0 30 21.5 51.5t51.5 21.5t51 -21.5t21 -51.5t-21 -51.5t-51 -21.5t-51.5 21.5t-21.5 51.5z" />
    <glyph glyph-name="uniE60C" unicode="&#xe60c;" 
d="M321 293q0 6 5 11l175 182q4 4 11 4t11 -4l175 -182q11 -11 0 -22t-22 0l-164 171l-164 -171q-11 -11 -22 0q-5 4 -5 11z" />
    <glyph glyph-name="uniE60D" unicode="&#xe60d;" 
d="M847 87h-669q-15 0 -26 -11t-11 -26v-75q0 -15 11 -26t26 -11h669q15 0 26 11t11 26v75q0 15 -11 26t-26 11zM364 235q0 -30 21.5 -52t52.5 -22h149q30 0 52 22t22 52v223h223l-372 372l-371 -372h223v-223z" />
    <glyph glyph-name="uniE60E" unicode="&#xe60e;" 
d="M889 188h-99v99q0 17 -11.5 28.5t-28 11.5t-28 -11.5t-11.5 -28.5v-99h-100q-16 0 -27.5 -11.5t-11.5 -28t11.5 -28t27.5 -11.5h100v-99q0 -17 11.5 -28.5t28 -11.5t28 11.5t11.5 28.5v99h99q16 0 28 11.5t12 28t-12 28t-28 11.5zM507 86h-292q-16 0 -28 11.5t-12 28.5
v555q0 16 12 28t28 12h555q17 0 28.5 -12t11.5 -28v-282v-1q0 -16 11.5 -27.5t28 -11.5t28 11.5t11.5 27.5v1v322q0 32 -23 55.5t-56 23.5h-635q-32 0 -55.5 -23.5t-23.5 -55.5v-635q0 -33 23.5 -56t55.5 -23h332q17 0 28.5 11.5t11.5 28t-11.5 28t-28.5 11.5zM507 203
q14 25 38.5 40t54.5 15h42v42q0 32 17.5 58t45.5 39v2l-54 163l-188 -243l-50 85l-200 -201h294zM413 542q0 25 -17 42.5t-42 17.5t-42.5 -17.5t-17.5 -42.5t17.5 -42t42.5 -17t42 17t17 42z" />
    <glyph glyph-name="uniE60F" unicode="&#xe60f;" 
d="M691 576l-154 213q-9 12 -23 13h-1h-1h-1q-15 -1 -23 -13l-155 -214q-7 -10 -5 -23t12 -20.5t22.5 -5.5t20.5 12l130 180l128 -179q8 -10 20.5 -12t22.5 5.5t12 20.5t-5 23zM782 -28h1q12 10 12 25l-1 263q0 13 -9 22.5t-22 9.5t-22 -9t-9 -22l1 -221l-209 68
q-12 5 -23.5 -1t-15.5 -18t2 -23.5t19 -15.5l249 -82q14 -5 27 3v1zM950 484h-1v1v1v0q-5 14 -20 19l-251 80q-12 4 -23.5 -2t-16 -18t1.5 -23t18 -15l211 -68l-130 -178q-8 -10 -6 -22.5t12.5 -20t23.5 -5.5t20 13l155 211q10 13 6 27zM539 89q-4 12 -15.5 18t-23.5 1
l-209 -68l1 221q0 13 -9 22t-22 9t-22 -9.5t-9 -22.5l-1 -263q0 -15 12 -25h1v-1h1q12 -8 26 -3l249 82q13 4 19 15.5t2 23.5zM385 565q-4 12 -15.5 18t-23.5 2l-251 -80q-15 -5 -20 -19v-1v-1h-1q-4 -14 6 -27l154 -211q8 -11 21 -13t23.5 5.5t12.5 20t-6 22.5l-130 178
l211 68q12 4 18 15t1 23z" />
    <glyph glyph-name="uniE610" unicode="&#xe610;" 
d="M512 752l-142 -188l-254 -84l148 -216l-2 -274l250 88l248 -76v254l158 214l-254 84zM691 576l-154 213q-9 12 -23 13h-1h-1h-1q-15 -1 -23 -13l-155 -214q-7 -10 -5 -23t12 -20.5t22.5 -5.5t20.5 12l130 180l128 -179q8 -10 20.5 -12t22.5 5.5t12 20.5t-5 23zM782 -28h1
q12 10 12 25l-1 263q0 13 -9 22.5t-22 9.5t-22 -9t-9 -22l1 -221l-209 68q-12 5 -23.5 -1t-15.5 -18t2 -23.5t19 -15.5l249 -82q14 -5 27 3v1zM950 484h-1v1v1v0q-5 14 -20 19l-251 80q-12 4 -23.5 -2t-16 -18t1.5 -23t18 -15l211 -68l-130 -178q-8 -10 -6 -22.5t12.5 -20
t23.5 -5.5t20 13l155 211q10 13 6 27zM539 89q-4 12 -15.5 18t-23.5 1l-209 -68l1 221q0 13 -9 22t-22 9t-22 -9.5t-9 -22.5l-1 -263q0 -15 12 -25h1v-1h1q12 -8 26 -3l249 82q13 4 19 15.5t2 23.5zM385 565q-4 12 -15.5 18t-23.5 2l-251 -80q-15 -5 -20 -19v-1v-1h-1
q-4 -14 6 -27l154 -211q8 -11 21 -13t23.5 5.5t12.5 20t-6 22.5l-130 178l211 68q12 4 18 15t1 23z" />
    <glyph glyph-name="uniE611" unicode="&#xe611;" 
d="M416 3q-38 0 -63 27l-187 200q-25 27 -22 65q2 36 29 62l362 337q7 7 15 5l275 -23q8 -1 13 -6.5t6 -13.5l4 -276q0 -9 -6 -15l-362 -337q-27 -25 -64 -25zM556 659zM740 578q-8 9 -19.5 9.5t-20 -7.5t-9 -20t7.5 -21t19.5 -9.5t20 7.5t9 20t-7.5 21zM740 578z" />
    <glyph glyph-name="uniE612" unicode="&#xe612;" 
d="M702 148q-80 -56 -178 -55q-12 0 -25 1q-2 0 -5.5 0.5t-4.5 1.5q-13 1 -19 2q-1 1 -11 3q-12 3 -19 5l-8 3q-13 4 -21 7q0 1 -4 3q-14 6 -24 11h-1q-38 22 -69 53v1h-1l-18 20q-1 1 -2 2.5t-2 2.5q-66 84 -66 192h70q3 0 4.5 2.5t0.5 4.5l-119 180q-1 3 -4 3t-4 -3
l-119 -180q-2 -2 -0.5 -4.5t4.5 -2.5h71q0 -126 71 -230l1 -1v-2q3 -3 15 -19q0 -1 2 -3.5t3 -3.5q10 -12 23 -26q2 -2 3 -2q40 -41 90 -68l2 -2q13 -7 29 -14q1 -1 3.5 -2t4.5 -1q10 -5 25 -10q10 -3 13 -4q8 -3 23 -6q13 -3 16 -4q1 0 3 -0.5t3 -0.5q5 -1 23 -3q1 -1 3 -1
h5q22 -3 40 -3q125 0 228 74q17 11 20.5 31t-8 36.5t-31 20t-36.5 -8.5zM928 401q0 125 -71 228q0 1 -0.5 2t-0.5 2q-6 7 -18 23l-1 1l-1 1q-61 75 -149 114q-1 0 -2.5 1t-2.5 1q-12 5 -28 11q-1 0 -3 0.5t-4 1.5t-3 1q-10 3 -26 7q-12 2 -14 3q-1 0 -3 0.5t-4 0.5
q-3 1 -10 2t-9 1q-1 0 -5.5 0.5t-7.5 0.5q-13 2 -31 2h-3h-3h-1q-126 0 -228 -73q-17 -11 -20.5 -31t8 -36.5t31 -20t36.5 8.5q79 56 176 55q14 0 27 -1q1 0 4 -0.5t4 -0.5q12 -2 21 -4q1 0 10 -2l20 -5q1 -1 3.5 -1.5t3.5 -0.5q12 -5 22 -9q1 0 1.5 -0.5t1.5 -0.5
q67 -29 114 -87q1 0 1 -1q69 -85 69 -194h-71q-3 0 -4.5 -3t0.5 -5l119 -180q1 -3 4 -3t4 3l119 180q1 2 -0.5 5t-4.5 3h-70z" />
    <glyph glyph-name="uniE613" unicode="&#xe613;" horiz-adv-x="1026" 
d="M514 896q-104 0 -199 -40.5t-163.5 -109t-109 -163.5t-40.5 -199t40.5 -199t109 -163.5t163.5 -109t199 -40.5t199 40.5t163.5 109t109 163.5t40.5 199t-40.5 199t-109 163.5t-163.5 109t-199 40.5zM513.5 -75q-93.5 0 -178.5 36t-146.5 97.5t-97.5 147t-36 178.5
t36 178.5t97.5 147t146.5 97.5t178.5 36t178.5 -36t146.5 -97.5t98 -147t36.5 -178.5t-36.5 -178.5t-98 -147t-146.5 -97.5t-178.5 -36zM774 403h-241v241q0 11 -8 18.5t-19 7.5t-18.5 -7.5t-7.5 -18.5v-241h-241q-11 0 -18.5 -8t-7.5 -18.5t7.5 -18.5t18.5 -8h241v-241
q0 -11 7.5 -18.5t18.5 -7.5t19 7.5t8 18.5v241h241q11 0 18.5 8t7.5 18.5t-7.5 18.5t-18.5 8z" />
    <glyph glyph-name="uniE614" unicode="&#xe614;" 
d="M620 701q45 0 76.5 -32t31.5 -77q0 -36 -14 -79.5t-35 -65.5l-3 -2q-38 -39 -38 -57q0 -19 12.5 -33.5t32.5 -18.5q52 -5 86 -21.5t58 -48.5l35 27q-30 39 -71.5 60t-101.5 27q-5 1 -7 6q6 8 26 28l2 2l1 1q29 30 45 82.5t16 92.5q0 63 -44.5 108t-107.5 45
q-28 0 -54 -10l15 -42q19 8 39 8zM687 220q-38 50 -90.5 76.5t-129.5 33.5q-13 3 -14 15q6 11 34 40l4 4q36 37 57 100t21 117q0 80 -55.5 136t-134 56t-134.5 -56t-56 -136q0 -54 21 -118t57 -101q30 -28 38 -42q-2 -13 -15 -15q-77 -8 -129 -34t-90 -76q-12 -15 -18.5 -40
t-7.5 -44v-79v-1q0 -35 25.5 -60.5t60.5 -25.5h496q35 0 60.5 25.5t25.5 60.5v81q-1 18 -7.5 43t-18.5 40zM669 56q0 -17 -12.5 -29.5t-29.5 -12.5h-496q-17 0 -29.5 12.5t-12.5 29.5q1 76 0 80q1 14 5.5 31.5t11.5 25.5q32 43 76.5 64.5t112.5 28.5q23 3 38.5 20.5
t15.5 41.5q0 23 -51 71q-29 30 -47 85t-18 102q0 61 43 104.5t103 43.5t103 -43.5t43 -104.5q0 -46 -18.5 -101.5t-46.5 -85.5l-4 -3q-47 -48 -47 -68q0 -22 14 -39.5t37 -21.5q70 -7 114.5 -29t77.5 -65q7 -8 11.5 -25.5t5.5 -30.5v-81zM951 125h-72v72q0 11 -6 19t-15.5 8
t-16 -8t-6.5 -19v-72h-71q-12 0 -20 -6.5t-8 -15.5t8 -15.5t20 -6.5h71v-72q0 -11 6.5 -19t16 -8t15.5 8t6 19v72h72q12 0 20 6.5t8 15.5t-8 15.5t-20 6.5zM620 701q45 0 76.5 -32t31.5 -77q0 -36 -14 -79.5t-35 -65.5l-3 -2q-38 -39 -38 -57q0 -19 12.5 -33.5t32.5 -18.5
q52 -5 86 -21.5t58 -48.5l35 27q-30 39 -71.5 60t-101.5 27q-5 1 -7 6q6 8 26 28l2 2l1 1q29 30 45 82.5t16 92.5q0 63 -44.5 108t-107.5 45q-28 0 -54 -10l15 -42q19 8 39 8zM687 220q-38 50 -90.5 76.5t-129.5 33.5q-13 3 -14 15q6 11 34 40l4 4q36 37 57 100t21 117
q0 80 -55.5 136t-134 56t-134.5 -56t-56 -136q0 -54 21 -118t57 -101q30 -28 38 -42q-2 -13 -15 -15q-77 -8 -129 -34t-90 -76q-12 -15 -18.5 -40t-7.5 -44v-79v-1q0 -35 25.5 -60.5t60.5 -25.5h496q35 0 60.5 25.5t25.5 60.5v81q-1 18 -7.5 43t-18.5 40zM669 56
q0 -17 -12.5 -29.5t-29.5 -12.5h-496q-17 0 -29.5 12.5t-12.5 29.5q1 76 0 80q1 14 5.5 31.5t11.5 25.5q32 43 76.5 64.5t112.5 28.5q23 3 38.5 20.5t15.5 41.5q0 23 -51 71q-29 30 -47 85t-18 102q0 61 43 104.5t103 43.5t103 -43.5t43 -104.5q0 -46 -18.5 -101.5
t-46.5 -85.5l-4 -3q-47 -48 -47 -68q0 -22 14 -39.5t37 -21.5q70 -7 114.5 -29t77.5 -65q7 -8 11.5 -25.5t5.5 -30.5v-81zM951 125h-72v72q0 11 -6 19t-15.5 8t-16 -8t-6.5 -19v-72h-71q-12 0 -20 -6.5t-8 -15.5t8 -15.5t20 -6.5h71v-72q0 -11 6.5 -19t16 -8t15.5 8t6 19v72
h72q12 0 20 6.5t8 15.5t-8 15.5t-20 6.5zM620 701q45 0 76.5 -32t31.5 -77q0 -36 -14 -79.5t-35 -65.5l-3 -2q-38 -39 -38 -57q0 -19 12.5 -33.5t32.5 -18.5q52 -5 86 -21.5t58 -48.5l35 27q-30 39 -71.5 60t-101.5 27q-5 1 -7 6q6 8 26 28l2 2l1 1q29 30 45 82.5t16 92.5
q0 63 -44.5 108t-107.5 45q-28 0 -54 -10l15 -42q19 8 39 8zM687 220q-38 50 -90.5 76.5t-129.5 33.5q-13 3 -14 15q6 11 34 40l4 4q36 37 57 100t21 117q0 80 -55.5 136t-134 56t-134.5 -56t-56 -136q0 -54 21 -118t57 -101q30 -28 38 -42q-2 -13 -15 -15q-77 -8 -129 -34
t-90 -76q-12 -15 -18.5 -40t-7.5 -44v-79v-1q0 -35 25.5 -60.5t60.5 -25.5h496q35 0 60.5 25.5t25.5 60.5v81q-1 18 -7.5 43t-18.5 40zM669 56q0 -17 -12.5 -29.5t-29.5 -12.5h-496q-17 0 -29.5 12.5t-12.5 29.5q1 76 0 80q1 14 5.5 31.5t11.5 25.5q32 43 76.5 64.5
t112.5 28.5q23 3 38.5 20.5t15.5 41.5q0 23 -51 71q-29 30 -47 85t-18 102q0 61 43 104.5t103 43.5t103 -43.5t43 -104.5q0 -46 -18.5 -101.5t-46.5 -85.5l-4 -3q-47 -48 -47 -68q0 -22 14 -39.5t37 -21.5q70 -7 114.5 -29t77.5 -65q7 -8 11.5 -25.5t5.5 -30.5v-81zM951 125
h-72v72q0 11 -6 19t-15.5 8t-16 -8t-6.5 -19v-72h-71q-12 0 -20 -6.5t-8 -15.5t8 -15.5t20 -6.5h71v-72q0 -11 6.5 -19t16 -8t15.5 8t6 19v72h72q12 0 20 6.5t8 15.5t-8 15.5t-20 6.5z" />
    <glyph glyph-name="uniE615" unicode="&#xe615;" 
d="M614 334h-204q-94 0 -174 -46t-126.5 -124.5t-46.5 -171.5v-20q0 -24 11 -42t38 -28.5t51 -17t73 -9t80 -3t94 -0.5h204h69q23 0 63 1.5t60.5 4t50 7t44.5 12t31 18t22.5 25t6.5 32.5v20q0 93 -46.5 171.5t-126.5 124.5t-174 46zM901 -29q0 -21 -102 -30q-60 -5 -183 -5
h-208q-134 0 -191 5q-94 9 -94 30v20q0 116 83.5 197.5t201.5 81.5h208q118 0 201.5 -81.5t83.5 -197.5v-20zM502 896q-114 0 -194.5 -79.5t-80.5 -191.5t80.5 -191.5t194.5 -79.5t194.5 79.5t80.5 191.5t-80.5 191.5t-194.5 79.5zM501.5 418q-87.5 0 -149.5 61t-62 147
t62 146.5t149.5 60.5t149.5 -60.5t62 -146.5t-62 -147t-149.5 -61z" />
    <glyph glyph-name="uniE616" unicode="&#xe616;" 
d="M1024 -77q0 -20 -14 -34.5t-34 -14.5h-923q-20 0 -34 14.5t-14 34.5q0 7 1 19.5t7.5 47t18.5 64.5t38 63t62 51q41 21 70.5 25t77.5 25q44 19 74.5 33t39.5 19l8 5l1 97q-4 4 -10.5 11t-19.5 38t-18 72q-16 -4 -23.5 12t-8.5 38q0 3 -1.5 17t-2 24t0.5 21.5t5.5 17
t12.5 3.5q-11 80 -8 107q5 60 56.5 107.5t128.5 51.5q88 -4 133.5 -49.5t51.5 -109.5q2 -25 -9 -107q8 2 12.5 -3.5t5.5 -17t0.5 -21t-2 -24t-1.5 -16.5q-1 -22 -9 -38.5t-23 -12.5q-5 -40 -17.5 -70.5t-21.5 -39.5l-10 -10l1 -97q24 -14 122 -56q48 -21 77.5 -26t70.5 -26
q36 -18 62 -51t38 -63t19 -64t8 -47t1 -20z" />
    <glyph glyph-name="uniE617" unicode="&#xe617;" 
d="M191 86q-31 0 -51 22.5t-20 56.5v432q0 36 20 60t51 24h358q31 0 50.5 -24t19.5 -60v-50q0 -21 -18 -21q-8 0 -14.5 8t-6.5 17v46q0 15 -9 26t-22 11h-354q-13 0 -22 -11t-9 -26v-427q0 -15 9 -26t22 -11h354q13 0 22 11t9 26v49q0 22 17 22q10 0 16 -6.5t6 -15.5v-49
q0 -36 -19.5 -60t-50.5 -24h-358zM749 225q-9 0 -15.5 7t-6.5 16.5t6 16.5l85 90v0h-368q-9 0 -15.5 7t-6.5 16.5t6.5 16.5t15.5 7h368v0l-85 90q-6 7 -6 16.5t6.5 16.5t15.5 7t16 -7l121 -129q6 -7 6 -17q0 -11 -6 -18l-121 -129q-7 -7 -16 -7v0z" />
    <glyph glyph-name="uniE618" unicode="&#xe618;" 
d="M512 896q-139 0 -257 -68.5t-186.5 -186.5t-68.5 -257t68.5 -257t186.5 -186.5t257 -68.5t257 68.5t186.5 186.5t68.5 257t-68.5 257t-186.5 186.5t-257 68.5zM783 373q-8 -28 -22 -54q-14 -25 -30 -45q-16 -21 -33 -38q-26 -27 -52 -48q-28 -23 -52 -39q-26 -17 -46 -25
q-20 -10 -31 -10q-13 0 -32 9q-21 11 -43 26q-24 16 -49 38q-25 21 -51 46q-16 15 -35 37q-19 21 -36 45q-17 25 -28.5 54t-13.5 62q-1 33 7 61t25 51q16 23 40 38t54 22q15 3 30 0.5t30 -7.5q15 -6 27 -14q13 -7 26 -16q27 -21 52 -50q21 26 44 46q20 17 45.5 31t53.5 12
q39 -3 65 -18.5t42 -38.5q15 -24 20.5 -54t3.5 -61t-11 -60z" />
    <glyph glyph-name="uniE619" unicode="&#xe619;" 
d="M703 475q0 -6 -5 -11l-175 -182q-4 -4 -11 -4t-11 4l-175 182q-11 11 0 22t22 0l164 -171l164 171q11 11 22 0q5 -4 5 -11z" />
    <glyph glyph-name="uniE61A" unicode="&#xe61a;" 
d="M655 592q-59 59 -143 59t-143.5 -59.5t-59.5 -143t60 -143.5q9 -9 20 -17v-152q-1 -1 -1 -1.5t1 -1.5v0q0 -7 5 -11.5t12 -4.5q5 0 10 3l90 56q3 1 7 1t8 -2l89 -55q4 -3 10 -3q7 0 12 5t5 12v155q10 8 18 16q60 60 60 143.5t-60 143.5zM598 174l-72 45q-6 4 -13 4
t-12 -4l-73 -45v90q40 -18 84 -18q45 0 86 19v-91zM512 285q-67 0 -115 48t-48 115.5t48 115t115 47.5t115 -47.5t48 -115t-48 -115.5t-115 -48zM512 285zM512 -51q-88 0 -168.5 34.5t-139 93t-93 139t-34.5 168.5t34.5 168.5t93 139t139 93t168.5 34.5t168.5 -34.5t139 -93
t93 -139t34.5 -168.5t-34.5 -168.5t-93 -139t-139 -93t-168.5 -34.5zM512 791q-110 0 -204 -54.5t-148.5 -148.5t-54.5 -204t54.5 -204t148.5 -148.5t204 -54.5t204 54.5t148.5 148.5t54.5 204t-54.5 204t-148.5 148.5t-204 54.5z" />
    <glyph glyph-name="uniE61C" unicode="&#xe61c;" 
d="M851 132h-674q-13 0 -22 9t-9 22v429q0 13 9 22t22 9h674q13 0 22 -9t9 -22v-429q0 -13 -9 -22t-22 -9zM173 154q1 -1 4 -1h673l-215 213l-102 -102q-9 -9 -21.5 -9t-21.5 9l-102 102zM649 380l213 -210v422v1zM166 588v-412l207 205zM181 602l323 -323q7 -7 15 0
l323 323h-661z" />
    <glyph glyph-name="uniE61D" unicode="&#xe61d;" 
d="M421 575q6 0 11 -5l182 -175q4 -4 4 -11t-4 -11l-182 -175q-11 -11 -22 0t0 22l171 164l-171 164q-11 11 0 22q4 5 11 5z" />
    <glyph glyph-name="uniE61E" unicode="&#xe61e;" 
d="M840 152q-23 9 -40 -10q-62 -79 -160 -108t-197 6q-61 21 -108 64.5t-72 98.5t-30 118.5t18 125.5q22 61 65.5 108t98 72t118 30t125.5 -18q2 -2 8 -3.5t9 -3.5q-13 -36 -18 -51q-3 -8 -7 -19l-6 -16q-2 -6 -3 -8q-6 -8 -1 -20q9 -17 27 -10h1l19 9l131 62l18 9l15 7
q9 4 10 12q3 8 -1 15l-8 15l-7 20l-62 130l-9 19v2q-3 7 -11 9.5t-15 -0.5q-10 -4 -12 -16l-15 -43q-4 -9 -10.5 -28t-10.5 -29q-9 5 -16 7q-77 28 -155 22t-145 -37t-120.5 -89t-80.5 -133q-29 -76 -22.5 -154t37 -145t88.5 -120.5t133 -79.5q121 -42 239 -8t194 128
q8 7 9 14q6 14 -0.5 28t-20.5 18z" />
    <glyph glyph-name="uniE61F" unicode="&#xe61f;" 
d="M672 -88q-61 0 -104.5 6t-61.5 12t-47 20q-67 31 -154 43v-25h-137q-37 0 -61 35q-20 31 -20 74v336q0 42 20 73q24 36 61 36h137v-19q143 49 242 124q57 44 85 88q27 44 21 84q-4 23 13 42q14 17 34 17q25 0 51.5 -13.5t42.5 -42.5q27 -47 13 -120q-14 -69 -64 -160h125
q41 0 62 -33q16 -26 16 -64q0 -60 -31 -97q1 -1 1 -2q11 -20 11 -51q0 -45 -20 -87q-13 -26 -31 -40v-12q0 -41 -20 -84q-20 -40 -49 -52q-8 -39 -44 -63q-38 -25 -91 -25zM309 42q45 -5 80.5 -14t51 -15.5t39.5 -17.5q26 -12 42 -17.5t55 -10.5t95 -5q35 0 61 15t26 44v25
h25q8 0 18 14q14 19 21 49q6 26 3 35q3 -8 14 -8v50q10 0 22 25q15 31 15 64q0 18 -4 26q-2 3 -5 3v50q7 0 16 17q12 24 12 54q0 24 -8 37q-7 10 -20 10h-212l23 38q35 59 55 107t24 79.5t2 50t-9 30.5q-16 29 -48 31v-2q17 -109 -126 -218q-112 -86 -272 -137zM168 472
q-12 0 -21.5 -17.5t-9.5 -41.5v-336q0 -24 9.5 -41.5t21.5 -17.5h87v454h-87z" />
    <glyph glyph-name="uniE620" unicode="&#xe620;" 
d="M603 193q-6 0 -11 5l-182 175q-4 4 -4 11t4 11l182 175q11 11 22 0t0 -22l-171 -164l171 -164q11 -11 0 -22q-4 -5 -11 -5z" />
    <glyph glyph-name="uniE621" unicode="&#xe621;" 
d="M184 152q23 9 40 -10q62 -79 160 -108t197 6q61 21 108 64.5t72 98.5t30 118.5t-18 125.5q-22 61 -65.5 108t-98 72t-118 30t-125.5 -18q-2 -2 -8 -3.5t-9 -3.5q13 -36 18 -51q3 -8 7 -19l6 -16q2 -6 3 -8q6 -8 1 -20q-9 -17 -27 -10h-1l-19 9l-131 62l-18 9l-15 7
q-9 4 -10 12q-3 8 1 15l8 15l8 18l62 131l8 20v2q3 7 11 9.5t15 -0.5q10 -4 12 -16q1 -2 3 -7l6 -17q4 -11 6 -19q4 -9 10.5 -28t10.5 -29q9 5 16 7q77 28 155 22t145 -37t120.5 -89t80.5 -133q29 -76 22.5 -154t-37 -145t-88.5 -120.5t-133 -79.5q-121 -42 -239 -8
t-194 128q-8 7 -9 14q-6 14 0.5 28t20.5 18z" />
    <glyph glyph-name="uniE622" unicode="&#xe622;" 
d="M298 431q-70 0 -119 49.5t-49 119t49 119t119 49.5t119.5 -49.5t49.5 -119t-49.5 -119t-119.5 -49.5zM298.5 717q-48.5 0 -83 -34.5t-34.5 -83t34.5 -83t83 -34.5t82.5 34.5t34 83t-34 83t-82.5 34.5zM727.5 431q-69.5 0 -119 49.5t-49.5 119t49.5 119t119 49.5
t119 -49.5t49.5 -119t-49.5 -119t-119 -49.5zM727.5 717q-48.5 0 -83 -34.5t-34.5 -83t34.5 -83t83 -34.5t83 34.5t34.5 83t-34.5 83t-83 34.5zM296.5 2q-69.5 0 -119 49.5t-49.5 119t49.5 119t119 49.5t119 -49.5t49.5 -119t-49.5 -119t-119 -49.5zM296.5 288
q-48.5 0 -83 -34.5t-34.5 -83t34.5 -83t83 -34.5t83 34.5t34.5 83t-34.5 83t-83 34.5zM726 2q-70 0 -119.5 49.5t-49.5 119t49.5 119t119.5 49.5t119 -49.5t49 -119t-49 -119t-119 -49.5zM725.5 288q-48.5 0 -82.5 -34.5t-34 -83t34 -83t82.5 -34.5t83 34.5t34.5 83
t-34.5 83t-83 34.5z" />
    <glyph glyph-name="uniE623" unicode="&#xe623;" 
d="M943 406.5q0 -18.5 -13 -31.5t-31 -13q-22 0 -35 17l-343 343v-657v-5q-2 -16 -15.5 -27.5t-32 -11.5t-32 11.5t-15.5 27.5v1v629l-312 -311v-1q-13 -16 -34 -16q-19 0 -32 13t-13 31.5t13 31.5l442 442l440 -442q13 -13 13 -31.5zM426 48v1v-1zM521 53v-5v5zM974 -77
q0 -20 -13 -33.5t-31 -13.5h-877h-6q-16 2 -27.5 15.5t-11.5 31.5t11.5 31.5t27.5 15.5h6h877q18 0 31 -13.5t13 -33.5zM426 56v-7v4v3z" />
    <glyph glyph-name="uniE624" unicode="&#xe624;" 
d="M323 -68q-165 12 -231 153q-38 80 -25 154.5t72 136.5q133 140 422 423q42 41 100.5 39.5t99 -42.5t41 -98.5t-40.5 -100.5q-74 -76 -315 -316q-2 -1 -6 -5.5t-6 -6.5t-6 -5t-6.5 -3.5t-6.5 -0.5t-8 2t-8 7q-5 6 -7 11.5t1 10.5t5.5 8t8.5 9t8 7q42 43 89.5 90.5
t106 105.5t89.5 90q25 25 30 31q22 28 22 64.5t-21 61.5q-21 24 -55.5 28t-65.5 -13q-21 -12 -34 -25q-34 -33 -98.5 -97t-104.5 -104t-95 -95.5t-101 -102.5q-60 -63 -62 -148.5t53 -146.5q62 -69 154.5 -71.5t160.5 63.5q24 23 393 392l23 23l11 11q8 8 12.5 11t12 3
t14.5 -7q6 -6 8 -12t-1.5 -12t-5.5 -9t-9.5 -9.5t-8.5 -8.5q-28 -28 -426 -425q-64 -65 -183 -71z" />
    <glyph glyph-name="uniE625" unicode="&#xe625;" 
d="M901 182h-747q-31 0 -52.5 22t-21.5 54v456q0 32 21.5 54t52.5 22h747q31 0 53 -22t22 -54v-456q0 -32 -22 -54t-53 -22zM901 638q0 32 -22 54t-53 22h-597q-31 0 -53 -22t-22 -54v-304q0 -32 22 -54t53 -22h597q31 0 53 22t22 54v304zM378 106h299v-76h149v-76h-597v76
h149v76z" />
    <glyph glyph-name="uniE626" unicode="&#xe626;" 
d="M932 190zM95 246v365q0 80 57 137t137 57h365q80 0 137 -57t57 -137v-133h30v133q0 93 -65.5 158.5t-158.5 65.5h-365q-93 0 -158.5 -65.5t-65.5 -158.5v-365q0 -93 65.5 -158.5t158.5 -65.5h133v30h-133q-80 0 -137 57t-57 137zM946 179h-194v194q0 6 -4.5 10.5t-11 4.5
t-11 -4.5t-4.5 -10.5v-194h-194q-6 0 -10.5 -4.5t-4.5 -11t4.5 -11t10.5 -4.5h194v-194q0 -6 4.5 -10.5t11 -4.5t11 4.5t4.5 10.5v194h194q6 0 10.5 4.5t4.5 11t-4.5 11t-10.5 4.5z" />
    <glyph glyph-name="uniE628" unicode="&#xe628;" 
d="M693 549q15 0 35 -2q-23 109 -127.5 181.5t-238.5 72.5q-98 0 -181 -40.5t-132 -111.5t-49 -156q0 -143 145 -245l-36 -109l127 64q6 -2 25 -5.5t27 -5t22.5 -4t26.5 -3t25 -0.5q16 0 34 1q-11 38 -11 76q0 119 89.5 203t218.5 84zM498 647q21 0 33.5 -12.5t12.5 -33
t-12.5 -33t-33.5 -12.5t-37.5 13t-16.5 32.5t16.5 32.5t37.5 13zM245 556q-22 0 -38.5 13t-16.5 32.5t16.5 32.5t38.5 13q20 0 32.5 -12.5t12.5 -33t-12.5 -33t-32.5 -12.5zM1024 266q0 71 -43 132t-113.5 96t-151.5 35q-129 0 -218.5 -77t-89.5 -186t89.5 -186t218.5 -77
q37 0 109 18l99 -54l-27 90q127 96 127 209zM616 312q-13 0 -24.5 11t-11.5 24.5t11.5 25t24.5 11.5q20 0 33 -11t13 -25.5t-13 -25t-33 -10.5zM815 312q-13 0 -24.5 11t-11.5 24.5t11.5 25t24.5 11.5q20 0 33 -11t13 -25.5t-13 -25t-33 -10.5z" />
    <glyph glyph-name="uniE629" unicode="&#xe629;" 
d="M246.5 531q24.5 0 42 17.5t17.5 42.5t-17.5 42.5t-42 17.5t-42 -17.5t-17.5 -42.5t17.5 -42.5t42 -17.5zM249.5 202q-24.5 0 -42.5 -17.5t-18 -43t18 -43t42.5 -17.5t42 17.5t17.5 43t-17.5 43t-42 17.5zM531 471q5 84 66 221.5t114 197.5q-75 1 -90 0
q-74 -89 -122.5 -216t-49.5 -203v-180q0 -33 20.5 -111.5t62.5 -172.5t89 -135h90q-7 10 -18.5 27.5t-41.5 68.5t-53.5 99.5t-43.5 111t-23 112.5q-3 35 -3.5 58t1.5 61t2 61z" />
    <glyph glyph-name="uniE62A" unicode="&#xe62a;" horiz-adv-x="1028" 
d="M944 69l-352 608q-32 56 -77.5 56t-78.5 -56l-351 -608q-32 -56 -9 -95.5t87 -39.5h703q64 0 87 39.5t-9 95.5zM466 504.5q19 20.5 48.5 20.5t48 -20.5t18.5 -50.5q0 -6 -6.5 -46t-15.5 -96.5t-12 -96.5h-64q-3 41 -12 97t-16.5 96t-7.5 46q0 30 19 50.5zM562 61
q-20 -19 -47.5 -19t-47.5 19t-20 46.5t20 47.5t47.5 20t47.5 -20t20 -47.5t-20 -46.5z" />
  </font>
</defs>
</svg>
